<?xml version="1.0" encoding="utf-8"?>
<!-- Generator: Adobe Illustrator 26.1.0, SVG Export Plug-In . SVG Version: 6.00 Build 0)  -->
<svg version="1.1" xmlns="http://www.w3.org/2000/svg" xmlns:xlink="http://www.w3.org/1999/xlink" x="0px" y="0px"
	 viewBox="0 0 2613 4096" style="enable-background:new 0 0 2613 4096;" xml:space="preserve">
<style type="text/css">
	.st0{fill:none;stroke:#DE1078;}
</style>
<g id="Layer_1">
	<image style="overflow:visible;" width="100%" height="100%" xlink:href="owomap.png"  transform="matrix(-1.836970e-16 1 -1 -1.836970e-16 2613 0)"></image>
</g>
<g class="plot" data-plot-id="59">
	<polygon points="1619.74,664.17 1474.7,838.96 1656.78,995.48 1797.13,827.48"/>
</g>
<g class="plot" data-plot-id="58">
	<polygon points="2060.09,901.83 1797.13,1026.26 1922.87,1297.57 2181.65,1166.09"/>
</g>
<g class="plot" data-plot-id="57">
	<polygon points="1599.91,1320.52 1407.39,1411.3 1496.61,1603.83 1686,1522.43"/>
</g>
<g class="plot" data-plot-id="56">
	<polygon points="1539.66,1096.88 1335.7,1011.22 1263.9,1220.07 1467.05,1303.29"/>
</g>
<g class="plot" data-plot-id="55">
	<polygon points="1246.7,1359.91 1032.78,1333.83 1005.39,1555.57 1227.13,1577.74"/>
</g>
<g class="plot" data-plot-id="54">
	<polygon points="1258.7,976.17 964.43,860.35 870.52,1126.43 1161.65,1239.13"/>
</g>
<g class="plot" data-plot-id="53">
	<polygon points="1210.17,876 1280.61,672.52 1074,586.43 1005.13,791.48"/>
</g>
<g class="plot" data-plot-id="52">
	<polygon points="811.04,624 613.83,716.35 712.43,913.57 900.26,829.83"/>
</g>
<g class="plot" data-plot-id="51">
	<polygon points="514.96,759.91 341.48,896.87 488.87,1070.35 659.74,936"/>
</g>
<g class="plot" data-plot-id="50">
	<polygon points="954.52,1303.29 764.09,1187.74 659.74,1370.35 844.96,1482.52"/>
</g>
<g class="plot" data-plot-id="46">
	<polygon points="2287.46,3430.93 2409.54,3074.06 2001.02,2937.89 1878.94,3308.85"/>
</g>
<g class="plot" data-plot-id="45">
	<polygon points="1507.98,3212.59 1794.41,3299.46 1695.81,3585.89 1407.39,3499.02"/>
</g>
<g class="plot" data-plot-id="44">
	<polygon points="1637.11,2923.8 1564.33,3137.46 1775.63,3198.5 1846.07,2994.24"/>
</g>
<g class="plot" data-plot-id="41">
	<polygon points="1266.15,2937.89 1148.76,3113.98 1324.85,3238.41 1453.98,3050.59"/>
</g>
<g class="plot" data-plot-id="34">
	<polygon points="589.98,2415.11 579.02,2642.06 799.72,2657.72 821.63,2438.59"/>
</g>
<g class="plot" data-plot-id="33">
	<polygon points="206.5,2591.98 206.5,2807.98 427.2,2800.15 427.2,2585.72"/>
</g>
<g class="plot" data-plot-id="32">
	<polygon points="467.89,2150.59 508.59,2371.28 727.72,2322.76 682.33,2111.46"/>
</g>
</svg>
